# xmcd CD database file generated by OrangeCD 6.3
#
# Track frame offsets:
#	150
#	13157
#	28427
#	49229
#	65138
#	80297
#	95811
#	113539
#	136051
#	153789
#	172383
#	191625
#
# Disc length: 2814 seconds
#
# Revision: 5
# Processed by: cddbd v1.5.2PL0 Copyright (c) Steve Scherf et al.
# Submitted via: OrangeCD 6.3
#
DISCID=a70afc0c
DTITLE=Susan Ashton - Closer
DYEAR=1999
DGENRE=Country
TTITLE0=Come On Out Of The Rain
TTITLE1=Closer
TTITLE2=Our Little World
TTITLE3=You're Lucky I Love You
TTITLE4=I Ain't Gonna Fall For Love Again
TTITLE5=Breathless
TTITLE6=Shot For The Moon
TTITLE7=Getaway Car
TTITLE8=Supernatural
TTITLE9=Think Of Me
TTITLE10=Faith Of The Heart
TTITLE11=Can't Cry Hard Enough
EXTD=
EXTT0=
EXTT1=
EXTT2=
EXTT3=
EXTT4=
EXTT5=
EXTT6=
EXTT7=
EXTT8=
EXTT9=
EXTT10=
EXTT11=
PLAYORDER=
